<svg width="775" height="401" viewBox="0 0 775 401" fill="none" xmlns="http://www.w3.org/2000/svg">
<rect width="775" height="401" fill="white"/>
<path d="M124.655 191.6C127.298 192.163 129.422 193.485 131.025 195.565C132.628 197.602 133.43 199.942 133.43 202.585C133.43 206.398 132.087 209.432 129.4 211.685C126.757 213.895 123.052 215 118.285 215H97.03V169.37H117.57C122.207 169.37 125.825 170.432 128.425 172.555C131.068 174.678 132.39 177.56 132.39 181.2C132.39 183.887 131.675 186.118 130.245 187.895C128.858 189.672 126.995 190.907 124.655 191.6ZM108.145 187.83H115.425C117.245 187.83 118.632 187.44 119.585 186.66C120.582 185.837 121.08 184.645 121.08 183.085C121.08 181.525 120.582 180.333 119.585 179.51C118.632 178.687 117.245 178.275 115.425 178.275H108.145V187.83ZM116.335 206.03C118.198 206.03 119.628 205.618 120.625 204.795C121.665 203.928 122.185 202.693 122.185 201.09C122.185 199.487 121.643 198.23 120.56 197.32C119.52 196.41 118.068 195.955 116.205 195.955H108.145V206.03H116.335ZM175.692 178.73V215H164.577V210.06C163.45 211.663 161.912 212.963 159.962 213.96C158.055 214.913 155.932 215.39 153.592 215.39C150.818 215.39 148.37 214.783 146.247 213.57C144.123 212.313 142.477 210.515 141.307 208.175C140.137 205.835 139.552 203.083 139.552 199.92V178.73H150.602V198.425C150.602 200.852 151.23 202.737 152.487 204.08C153.743 205.423 155.433 206.095 157.557 206.095C159.723 206.095 161.435 205.423 162.692 204.08C163.948 202.737 164.577 200.852 164.577 198.425V178.73H175.692ZM194.791 184.775C196.091 182.782 197.716 181.222 199.666 180.095C201.616 178.925 203.782 178.34 206.166 178.34V190.105H203.111C200.337 190.105 198.257 190.712 196.871 191.925C195.484 193.095 194.791 195.175 194.791 198.165V215H183.676V178.73H194.791V184.775ZM225.258 178.21C227.815 178.21 230.047 178.73 231.953 179.77C233.903 180.81 235.398 182.175 236.438 183.865V178.73H247.553V214.935C247.553 218.272 246.882 221.283 245.538 223.97C244.238 226.7 242.223 228.867 239.493 230.47C236.807 232.073 233.448 232.875 229.418 232.875C224.045 232.875 219.69 231.597 216.353 229.04C213.017 226.527 211.11 223.103 210.633 218.77H221.618C221.965 220.157 222.788 221.24 224.088 222.02C225.388 222.843 226.992 223.255 228.898 223.255C231.195 223.255 233.015 222.583 234.358 221.24C235.745 219.94 236.438 217.838 236.438 214.935V209.8C235.355 211.49 233.86 212.877 231.953 213.96C230.047 215 227.815 215.52 225.258 215.52C222.268 215.52 219.56 214.762 217.133 213.245C214.707 211.685 212.778 209.497 211.348 206.68C209.962 203.82 209.268 200.527 209.268 196.8C209.268 193.073 209.962 189.802 211.348 186.985C212.778 184.168 214.707 182.002 217.133 180.485C219.56 178.968 222.268 178.21 225.258 178.21ZM236.438 196.865C236.438 194.092 235.658 191.903 234.098 190.3C232.582 188.697 230.718 187.895 228.508 187.895C226.298 187.895 224.413 188.697 222.853 190.3C221.337 191.86 220.578 194.027 220.578 196.8C220.578 199.573 221.337 201.783 222.853 203.43C224.413 205.033 226.298 205.835 228.508 205.835C230.718 205.835 232.582 205.033 234.098 203.43C235.658 201.827 236.438 199.638 236.438 196.865ZM289.784 196.28C289.784 197.32 289.719 198.403 289.589 199.53H264.434C264.608 201.783 265.323 203.517 266.579 204.73C267.879 205.9 269.461 206.485 271.324 206.485C274.098 206.485 276.026 205.315 277.109 202.975H288.939C288.333 205.358 287.228 207.503 285.624 209.41C284.064 211.317 282.093 212.812 279.709 213.895C277.326 214.978 274.661 215.52 271.714 215.52C268.161 215.52 264.998 214.762 262.224 213.245C259.451 211.728 257.284 209.562 255.724 206.745C254.164 203.928 253.384 200.635 253.384 196.865C253.384 193.095 254.143 189.802 255.659 186.985C257.219 184.168 259.386 182.002 262.159 180.485C264.933 178.968 268.118 178.21 271.714 178.21C275.224 178.21 278.344 178.947 281.074 180.42C283.804 181.893 285.928 183.995 287.444 186.725C289.004 189.455 289.784 192.64 289.784 196.28ZM278.409 193.355C278.409 191.448 277.759 189.932 276.459 188.805C275.159 187.678 273.534 187.115 271.584 187.115C269.721 187.115 268.139 187.657 266.839 188.74C265.583 189.823 264.803 191.362 264.499 193.355H278.409ZM306.763 184.775C308.063 182.782 309.688 181.222 311.638 180.095C313.588 178.925 315.755 178.34 318.138 178.34V190.105H315.083C312.31 190.105 310.23 190.712 308.843 191.925C307.456 193.095 306.763 195.175 306.763 198.165V215H295.648V178.73H306.763V184.775ZM358.805 215.455C354.515 215.455 350.572 214.458 346.975 212.465C343.422 210.472 340.584 207.698 338.46 204.145C336.38 200.548 335.34 196.518 335.34 192.055C335.34 187.592 336.38 183.583 338.46 180.03C340.584 176.477 343.422 173.703 346.975 171.71C350.572 169.717 354.515 168.72 358.805 168.72C363.095 168.72 367.017 169.717 370.57 171.71C374.167 173.703 376.984 176.477 379.02 180.03C381.1 183.583 382.14 187.592 382.14 192.055C382.14 196.518 381.1 200.548 379.02 204.145C376.94 207.698 374.124 210.472 370.57 212.465C367.017 214.458 363.095 215.455 358.805 215.455ZM358.805 205.315C362.445 205.315 365.349 204.102 367.515 201.675C369.725 199.248 370.83 196.042 370.83 192.055C370.83 188.025 369.725 184.818 367.515 182.435C365.349 180.008 362.445 178.795 358.805 178.795C355.122 178.795 352.175 179.987 349.965 182.37C347.799 184.753 346.715 187.982 346.715 192.055C346.715 196.085 347.799 199.313 349.965 201.74C352.175 204.123 355.122 205.315 358.805 205.315ZM410.424 178.34C414.671 178.34 418.051 179.727 420.564 182.5C423.121 185.23 424.399 189 424.399 193.81V215H413.349V195.305C413.349 192.878 412.721 190.993 411.464 189.65C410.207 188.307 408.517 187.635 406.394 187.635C404.271 187.635 402.581 188.307 401.324 189.65C400.067 190.993 399.439 192.878 399.439 195.305V215H388.324V178.73H399.439V183.54C400.566 181.937 402.082 180.68 403.989 179.77C405.896 178.817 408.041 178.34 410.424 178.34ZM508.687 169.37L496.792 215H483.337L476.057 184.97L468.517 215H455.062L443.492 169.37H455.387L461.952 202.585L470.077 169.37H482.297L490.097 202.585L496.727 169.37H508.687ZM536.556 178.34C540.716 178.34 544.053 179.727 546.566 182.5C549.08 185.23 550.336 189 550.336 193.81V215H539.286V195.305C539.286 192.878 538.658 190.993 537.401 189.65C536.145 188.307 534.455 187.635 532.331 187.635C530.208 187.635 528.518 188.307 527.261 189.65C526.005 190.993 525.376 192.878 525.376 195.305V215H514.261V166.9H525.376V183.605C526.503 182.002 528.041 180.723 529.991 179.77C531.941 178.817 534.13 178.34 536.556 178.34ZM592.25 196.28C592.25 197.32 592.185 198.403 592.055 199.53H566.9C567.074 201.783 567.789 203.517 569.045 204.73C570.345 205.9 571.927 206.485 573.79 206.485C576.564 206.485 578.492 205.315 579.575 202.975H591.405C590.799 205.358 589.694 207.503 588.09 209.41C586.53 211.317 584.559 212.812 582.175 213.895C579.792 214.978 577.127 215.52 574.18 215.52C570.627 215.52 567.464 214.762 564.69 213.245C561.917 211.728 559.75 209.562 558.19 206.745C556.63 203.928 555.85 200.635 555.85 196.865C555.85 193.095 556.609 189.802 558.125 186.985C559.685 184.168 561.852 182.002 564.625 180.485C567.399 178.968 570.584 178.21 574.18 178.21C577.69 178.21 580.81 178.947 583.54 180.42C586.27 181.893 588.394 183.995 589.91 186.725C591.47 189.455 592.25 192.64 592.25 196.28ZM580.875 193.355C580.875 191.448 580.225 189.932 578.925 188.805C577.625 187.678 576 187.115 574.05 187.115C572.187 187.115 570.605 187.657 569.305 188.74C568.049 189.823 567.269 191.362 566.965 193.355H580.875ZM632.304 196.28C632.304 197.32 632.239 198.403 632.109 199.53H606.954C607.127 201.783 607.842 203.517 609.099 204.73C610.399 205.9 611.981 206.485 613.844 206.485C616.617 206.485 618.546 205.315 619.629 202.975H631.459C630.852 205.358 629.747 207.503 628.144 209.41C626.584 211.317 624.612 212.812 622.229 213.895C619.846 214.978 617.181 215.52 614.234 215.52C610.681 215.52 607.517 214.762 604.744 213.245C601.971 211.728 599.804 209.562 598.244 206.745C596.684 203.928 595.904 200.635 595.904 196.865C595.904 193.095 596.662 189.802 598.179 186.985C599.739 184.168 601.906 182.002 604.679 180.485C607.452 178.968 610.637 178.21 614.234 178.21C617.744 178.21 620.864 178.947 623.594 180.42C626.324 181.893 628.447 183.995 629.964 186.725C631.524 189.455 632.304 192.64 632.304 196.28ZM620.929 193.355C620.929 191.448 620.279 189.932 618.979 188.805C617.679 187.678 616.054 187.115 614.104 187.115C612.241 187.115 610.659 187.657 609.359 188.74C608.102 189.823 607.322 191.362 607.019 193.355H620.929ZM649.283 166.9V215H638.168V166.9H649.283ZM672.093 215.52C668.929 215.52 666.113 214.978 663.643 213.895C661.173 212.812 659.223 211.338 657.793 209.475C656.363 207.568 655.561 205.445 655.388 203.105H666.373C666.503 204.362 667.088 205.38 668.128 206.16C669.168 206.94 670.446 207.33 671.963 207.33C673.349 207.33 674.411 207.07 675.148 206.55C675.928 205.987 676.318 205.272 676.318 204.405C676.318 203.365 675.776 202.607 674.693 202.13C673.609 201.61 671.854 201.047 669.428 200.44C666.828 199.833 664.661 199.205 662.928 198.555C661.194 197.862 659.699 196.8 658.443 195.37C657.186 193.897 656.558 191.925 656.558 189.455C656.558 187.375 657.121 185.49 658.248 183.8C659.418 182.067 661.108 180.702 663.318 179.705C665.571 178.708 668.236 178.21 671.313 178.21C675.863 178.21 679.438 179.337 682.038 181.59C684.681 183.843 686.198 186.833 686.588 190.56H676.318C676.144 189.303 675.581 188.307 674.628 187.57C673.718 186.833 672.504 186.465 670.988 186.465C669.688 186.465 668.691 186.725 667.998 187.245C667.304 187.722 666.958 188.393 666.958 189.26C666.958 190.3 667.499 191.08 668.583 191.6C669.709 192.12 671.443 192.64 673.783 193.16C676.469 193.853 678.658 194.547 680.348 195.24C682.038 195.89 683.511 196.973 684.768 198.49C686.068 199.963 686.739 201.957 686.783 204.47C686.783 206.593 686.176 208.5 684.963 210.19C683.793 211.837 682.081 213.137 679.828 214.09C677.618 215.043 675.039 215.52 672.093 215.52Z" fill="#FFD93D"/>
</svg>
